{"title":"The Kids Are All Right 2010 BDRip XVID AC3 HQ Hive-CM8  (BX)","uid":5936435,"size":1646430461,"categoryP":"video","categoryS":"movies","magnet":"?xt=urn:btih:57c6bc5f6b541c9e43710b76cd3aeea9e0fc69c9&amp;dn=The+Kids+Are+All+Right+2010+BDRip+XVID+AC3+HQ+Hive-CM8++%28BX%29&amp;tr=udp%3A%2F%2Ftracker.openbittorrent.com%3A80&amp;tr=udp%3A%2F%2Fopen.demonii.com%3A1337&amp;tr=udp%3A%2F%2Ftracker.coppersurfer.tk%3A6969&amp;tr=udp%3A%2F%2Fexodus.desync.com%3A6969","seeders":0,"leechers":0,"uploader":"Kill3rK","files":109,"time":1288983387,"description":"Clean Scene Releases   &lt;a href=&quot; http://bitxtre.me/&quot; rel=&quot;nofollow&quot; target=&quot;_NEW&quot;&gt; http://bitxtre.me/&lt;/a&gt;\n\n\n-------------------------------------------------------------------------------------\n                                   nfo\n\n\n\n &lt;a href=&quot;\nhttp://img8.imageshack.us/img8/8203/thekidsareallrightblura.jpg&quot; rel=&quot;nofollow&quot; target=&quot;_NEW&quot;&gt;\nhttp://img8.imageshack.us/img8/8203/thekidsareallrightblura.jpg&lt;/a&gt;\n\nThe Kids Are All Right 2010 BDRip XVID AC3 HQ Hive-CM8\n\n\nThx Hive\n\nCM8 Doing It Right The First Time\n\nWhy download a touched up rip of a rip BRrip\nGet the real deal BDRip\nEnjoy\n\nSource US Bluray\n\nVideo: 720x384 @bitrate 1600 2pass\nAudio: DTS to AC3 5.1 @448\nSample: yes included\nSubs: yes in srt\n\n &lt;a href=&quot;\nhttp://www.imdb.com/title/tt0842926/&quot; rel=&quot;nofollow&quot; target=&quot;_NEW&quot;&gt;\nhttp://www.imdb.com/title/tt0842926/&lt;/a&gt;\n\nGeneral\nComplete name                    : The.Kids.Are.All.Right.BDRip.XVID.AC3.HQ.Hive-CM8.avi\nFormat                           : AVI\nFormat/Info                      : Audio Video Interleave\nFile size                        : 1.53 GiB\nDuration                         : 1h 46mn\nOverall bit rate                 : 2 056 Kbps\nWriting application              : Nandub v1.0rc2\nWriting library                  : Nandub build 1853/release\n\nVideo\nID                               : 0\nFormat                           : MPEG-4 Visual\nFormat profile                   : Advanced Simple@L5\nFormat settings, BVOP            : Yes\nFormat settings, QPel            : Yes\nFormat settings, GMC             : No warppoints\nFormat settings, Matrix          : Default (H.263)\nMuxing mode                      : Packed bitstream\nCodec ID                         : XVID\nCodec ID/Hint                    : XviD\nDuration                         : 1h 46mn\nBit rate                         : 1 599 Kbps\nWidth                            : 720 pixels\nHeight                           : 384 pixels\nDisplay aspect ratio             : 1.850\nFrame rate                       : 23.976 fps\nColor space                      : YUV\nChroma subsampling               : 4:2:0\nBit depth                        : 8 bits\nScan type                        : Progressive\nBits/(Pixel*Frame)               : 0.241\nStream size                      : 1.19 GiB (78%)\nWriting library                  : XviD 1.2.1 (UTC 2008-12-04)\n\nAudio\nID                               : 1\nFormat                           : AC-3\nFormat/Info                      : Audio Coding 3\nMode extension                   : CM (complete main)\nCodec ID                         : 2000\nDuration                         : 1h 46mn\nBit rate mode                    : Constant\nBit rate                         : 448 Kbps\nChannel(s)                       : 6 channels\nChannel positions                : Front: L C R, Side: L R, LFE\nSampling rate                    : 48.0 KHz\nBit depth                        : 16 bits\nStream size                      : 341 MiB (22%)\nAlignment                        : Split accross interleaves\nInterleave, duration             : 42 ms (1.00 video frame)\nInterleave, preload duration     : 500 ms\n\n\n\nAnnette Bening ... Nic\nJulianne Moore ... Jules\nMark Ruffalo ... Paul\nMia Wasikowska ... Joni\nJosh Hutcherson ... Laser\nYaya DaCosta ... Tanya\nKunal Sharma ... Jai\nEddie Hassell ... Clay\nZosia Mamet ... Sasha\nJoaquÃƒÆ’Ã‚Â­n Garrido ... Luis\nRebecca Lawrence ... Brooke\nLisa Eisner ... Stella\nEric Eisner ... Joel\n\n\n\nTwo children conceived by artificial insemination bring their\nbirth father into their family life.\n\n\n &lt;a href=&quot;\nhttp://img46.imageshack.us/img46/6070/tk1u.png&quot; rel=&quot;nofollow&quot; target=&quot;_NEW&quot;&gt;\nhttp://img46.imageshack.us/img46/6070/tk1u.png&lt;/a&gt; &lt;a href=&quot;\nhttp://img218.imageshack.us/img218/4572/tk2z.png&quot; rel=&quot;nofollow&quot; target=&quot;_NEW&quot;&gt;\nhttp://img218.imageshack.us/img218/4572/tk2z.png&lt;/a&gt; &lt;a href=&quot;\nhttp://img573.imageshack.us/img573/9256/tk3.png&quot; rel=&quot;nofollow&quot; target=&quot;_NEW&quot;&gt;\nhttp://img573.imageshack.us/img573/9256/tk3.png&lt;/a&gt; &lt;a href=&quot;\nhttp://img2.imageshack.us/img2/1874/tk4.png&quot; rel=&quot;nofollow&quot; target=&quot;_NEW&quot;&gt;\nhttp://img2.imageshack.us/img2/1874/tk4.png&lt;/a&gt;\n","torrent":{"xt":"urn:btih:57c6bc5f6b541c9e43710b76cd3aeea9e0fc69c9","amp;dn":"The+Kids+Are+All+Right+2010+BDRip+XVID+AC3+HQ+Hive-CM8++%28BX%29","amp;tr":["udp%3A%2F%2Ftracker.openbittorrent.com%3A80","udp%3A%2F%2Fopen.demonii.com%3A1337","udp%3A%2F%2Ftracker.coppersurfer.tk%3A6969","udp%3A%2F%2Fexodus.desync.com%3A6969"],"infoHash":"57c6bc5f6b541c9e43710b76cd3aeea9e0fc69c9","infoHashBuffer":{"type":"Buffer","data":[87,198,188,95,107,84,28,158,67,113,11,118,205,58,238,169,224,252,105,201]},"announce":[],"urlList":[]}}